<svg width="100" height="100" viewBox="0 0 100 100" fill="none" xmlns="http://www.w3.org/2000/svg">
<path d="M40.4583 26.2083C40.071 25.8178 39.6102 25.5078 39.1024 25.2963C38.5947 25.0847 38.0501 24.9758 37.5 24.9758C36.95 24.9758 36.4053 25.0847 35.8976 25.2963C35.3899 25.5078 34.929 25.8178 34.5417 26.2083L13.7083 47.0417C13.3178 47.429 13.0078 47.8898 12.7963 48.3976C12.5848 48.9053 12.4758 49.4499 12.4758 50C12.4758 50.55 12.5848 51.0946 12.7963 51.6024C13.0078 52.1101 13.3178 52.571 13.7083 52.9583L34.5417 73.7916C34.929 74.1822 35.3899 74.4922 35.8976 74.7037C36.4053 74.9152 36.95 75.0241 37.5 75.0241C38.0501 75.0241 38.5947 74.9152 39.1024 74.7037C39.6102 74.4922 40.071 74.1822 40.4583 73.7916C40.8489 73.4043 41.1588 72.9435 41.3704 72.4357C41.5819 71.928 41.6908 71.3834 41.6908 70.8333C41.6908 70.2833 41.5819 69.7387 41.3704 69.2309C41.1588 68.7232 40.8489 68.2623 40.4583 67.875L22.5417 50L40.4583 32.125C40.8489 31.7376 41.1588 31.2768 41.3704 30.7691C41.5819 30.2613 41.6908 29.7167 41.6908 29.1667C41.6908 28.6166 41.5819 28.072 41.3704 27.5643C41.1588 27.0565 40.8489 26.5957 40.4583 26.2083ZM86.2917 47.0417L65.4583 26.2083C65.0698 25.8198 64.6086 25.5117 64.101 25.3014C63.5935 25.0912 63.0494 24.9829 62.5 24.9829C61.3904 24.9829 60.3263 25.4237 59.5417 26.2083C59.1532 26.5968 58.845 27.058 58.6348 27.5656C58.4245 28.0732 58.3163 28.6172 58.3163 29.1667C58.3163 30.2762 58.7571 31.3404 59.5417 32.125L77.4583 50L59.5417 67.875C59.1511 68.2623 58.8412 68.7232 58.6296 69.2309C58.4181 69.7387 58.3092 70.2833 58.3092 70.8333C58.3092 71.3834 58.4181 71.928 58.6296 72.4357C58.8412 72.9435 59.1511 73.4043 59.5417 73.7916C59.929 74.1822 60.3899 74.4922 60.8976 74.7037C61.4053 74.9152 61.95 75.0241 62.5 75.0241C63.0501 75.0241 63.5947 74.9152 64.1024 74.7037C64.6102 74.4922 65.071 74.1822 65.4583 73.7916L86.2917 52.9583C86.6822 52.571 86.9922 52.1101 87.2037 51.6024C87.4153 51.0946 87.5242 50.55 87.5242 50C87.5242 49.4499 87.4153 48.9053 87.2037 48.3976C86.9922 47.8898 86.6822 47.429 86.2917 47.0417Z" fill="white"/>
</svg>
