<svg width="100" height="100" viewBox="0 0 100 100" fill="none" xmlns="http://www.w3.org/2000/svg">
<path d="M34.5 50L10.5 26.5C9.49998 25.5 9.49998 24 10.5 23L22.5 11C23.5 10 25 10 26 11L49.5 34.5" stroke="white" stroke-miterlimit="10"/>
<path d="M65 50L89 74C90 75 90 76.5 89 77.5L77 89.5C76 90.5 74.5 90.5 73.5 89.5L50 65.5" stroke="white" stroke-miterlimit="10"/>
<path d="M65.3373 81.3633L70.2869 86.3131L80.5402 76.0602L75.5905 71.1104L65.3373 81.3633Z" fill="white"/>
<path d="M55.051 70.8601L60.0007 75.8099L65.304 70.5067L60.3544 65.5569L55.051 70.8601Z" fill="white"/>
<path d="M24.4323 39.8854L29.382 44.8352L39.6352 34.5823L34.6855 29.6325L24.4323 39.8854Z" fill="white"/>
<path d="M14.1425 30.0981L19.0921 35.048L24.3955 29.7448L19.4459 24.7949L14.1425 30.0981Z" fill="white"/>
<path d="M70 14.5L73 11.5C75 9.5 78 9.5 80 11.5L88.5 20C90.5 22 90.5 25 88.5 27L85.5 30" stroke="white" stroke-miterlimit="10" stroke-linecap="round" stroke-linejoin="round"/>
<path d="M81.2872 34.1365L66.0847 18.9335L18.3541 66.6623L33.5567 81.8654L81.2872 34.1365Z" stroke="white" stroke-miterlimit="10" stroke-linecap="round" stroke-linejoin="round"/>
<path d="M70.8871 23.9206L22.0976 72.7118L27.0475 77.6615L75.837 28.8702L70.8871 23.9206Z" fill="white"/>
<path d="M10.5 89.5L18 66.5L33.5 82L10.5 89.5Z" stroke="white" stroke-miterlimit="10" stroke-linecap="round" stroke-linejoin="round"/>
<path d="M13 82.0001L10.5 89.5001L18 87.0001L13 82.0001Z" fill="white"/>
<path d="M86.5 29L80.5 34.5L65.5 19.5L71 13.5" stroke="white" stroke-miterlimit="10" stroke-linecap="round" stroke-linejoin="round"/>
</svg>
