<svg xmlns="http://www.w3.org/2000/svg" enable-background="new 0 0 1000 1000" viewBox="0 0 1000 1000"><rect width="1000" height="1000" fill="#3a60a6"/><path fill="#32539a" stroke="#32539a" stroke-linecap="round" stroke-linejoin="round" stroke-miterlimit="10" stroke-width="6" d="M582.176 466.06l68.186-.936c.785-.011 1.492-.595 1.808-1.492l4.998-14.192c.581-1.65-.387-3.501-1.831-3.501h-67.183c-.76 0-1.455.538-1.792 1.389l-6.001 15.128C579.697 464.127 580.682 466.082 582.176 466.06zM654.429 474h-83c-4.694 0-8.5 3.806-8.5 8.5 0 4.694 3.806 8.5 8.5 8.5h83c4.694 0 8.5-3.806 8.5-8.5C662.929 477.806 659.123 474 654.429 474zM372 687.08c0 5.881 4.318 10.867 10.137 11.72 86.115 12.627 173.612 12.627 259.727 0 5.818-.853 10.137-5.839 10.137-11.72V494.27H372V687.08z"/><g><path fill="#b4cae9" d="M360,480v192.81c0,5.881,4.318,10.867,10.137,11.72
		c86.115,12.627,173.612,12.627,259.727,0c5.818-0.853,10.137-5.839,10.137-11.72V480H360z"/><path fill="none" stroke="#31306b" stroke-linecap="round" stroke-linejoin="round" stroke-miterlimit="10" stroke-width="6" d="
		M360,480v192.81c0,5.881,4.318,10.867,10.137,11.72c86.115,12.627,173.612,12.627,259.727,0c5.818-0.853,10.137-5.839,10.137-11.72
		V480H360z"/><path fill="#f3f8ff" d="M500,684c-42.928,0-86.229-3.158-128.703-9.386
		c-1.88-0.275-3.297-1.911-3.297-3.805V490.75c0-2.623,2.127-4.75,4.75-4.75h254.5c2.623,0,4.75,2.127,4.75,4.75v180.06
		c0,1.894-1.417,3.529-3.297,3.805C586.229,680.842,542.928,684,500,684z"/><path fill="#334684" d="M360,456c0,0-5.429-114.654-7.809-164.911c-0.157-3.324-0.315-6.654-0.473-9.992
		c98.027-13.463,198.537-13.463,296.564,0c-0.158,3.338-0.316,6.669-0.473,9.992C645.429,341.346,640,456,640,456H360z"/><path fill="#2b3f77" d="M397.721,425.333c-4.357,0-7.984-3.544-8.084-7.9l-2.563-111.851
		c-0.05-2.195,0.767-4.268,2.301-5.837c1.534-1.57,3.588-2.434,5.783-2.434h209.685c2.195,0,4.249,0.865,5.783,2.435
		c1.534,1.57,2.352,3.643,2.301,5.837l-2.563,111.85c-0.1,4.356-3.726,7.901-8.084,7.901H397.721z" opacity=".3"/><path fill="#31306b" d="M602.279,420.333H397.721c-1.677,0-3.047-1.339-3.085-3.015l-2.563-111.851
		c-0.04-1.732,1.353-3.157,3.085-3.157h209.685c1.732,0,3.125,1.425,3.085,3.157l-2.563,111.851
		C605.326,418.994,603.956,420.333,602.279,420.333z"/><path fill="#2b2b60" d="M568.809,302.311c-1.582,0-2.902,1.17-3.139,2.734
		c-7.754,50.985-51.779,90.051-104.929,90.051h-63.457c-1.732,0-3.125,1.425-3.085,3.157l0.437,19.065
		c0.038,1.676,1.408,3.015,3.085,3.015h204.559c1.677,0,3.047-1.339,3.085-3.015l2.563-111.851c0.04-1.732-1.353-3.157-3.085-3.157
		H568.809z"/><path fill="none" stroke="#31306b" stroke-linecap="round" stroke-linejoin="round" stroke-miterlimit="10" stroke-width="6" d="
		M360,456c0,0-5.429-114.654-7.809-164.911c-0.157-3.324-0.315-6.654-0.473-9.992c98.027-13.463,198.537-13.463,296.564,0
		c-0.158,3.338-0.316,6.669-0.473,9.992C645.429,341.346,640,456,640,456H360z"/><path fill="#b4cae9" d="M531.613,608.337c-20.022-9.422-43.203-9.422-63.225,0c0,4.86,0,9.719,0,14.579
		h63.225C531.613,618.056,531.613,613.196,531.613,608.337z"/><path fill="#c4d9f2" d="M468.387,609.337c0,1.302,0,2.605,0,3.907c20.023-8.646,43.204-8.681,63.225,0
		c0-1.302,0-2.605,0-3.907C511.591,599.915,488.409,599.915,468.387,609.337z"/><path fill="none" stroke="#31306b" stroke-linecap="round" stroke-linejoin="round" stroke-miterlimit="10" stroke-width="4" d="
		M531.613,608.337c-19.777-7.109-42.894-7.807-63.225,0c0,4.86,0,9.719,0,14.579h63.225
		C531.613,618.056,531.613,613.196,531.613,608.337z"/><circle cx="500" cy="621.144" r="12.418" fill="#94b7e0"/><circle cx="500" cy="621.144" r="12.418" fill="none" stroke="#31306b" stroke-linecap="round" stroke-linejoin="round" stroke-miterlimit="10" stroke-width="3"/><path fill="#c4d9f2" d="M511.882,645.021c-3.505,1.999-7.558,3.147-11.882,3.147
		c-4.324,0-8.377-1.148-11.882-3.147h-19.731c0,4.86,0,9.719,0,14.579c20.022,9.422,43.203,9.422,63.225,0c0-4.86,0-9.719,0-14.579
		H511.882z"/><path fill="#a2bddd" d="M468.387,654.1c0,1.833,0,3.667,0,5.5c20.022,9.422,43.203,9.422,63.225,0
		c0-1.833,0-3.667,0-5.5C511.591,663.522,488.409,663.522,468.387,654.1z"/><path fill="none" stroke="#31306b" stroke-linecap="round" stroke-linejoin="round" stroke-miterlimit="10" stroke-width="4" d="
		M511.882,645.021c-3.505,1.999-7.558,3.147-11.882,3.147c-4.324,0-8.377-1.148-11.882-3.147h-19.731c0,4.86,0,9.719,0,14.579
		c20.022,9.422,43.203,9.422,63.225,0c0-4.86,0-9.719,0-14.579H511.882z"/><circle cx="500" cy="621.144" r="9.798" fill="#31306b"/><path fill="#28285b" d="M505.931,613.358c0.192,0.847,0.302,1.725,0.302,2.63
		c0,6.561-5.319,11.879-11.88,11.879c-0.535,0-1.057-0.048-1.573-0.116c1.791,1.956,4.358,3.19,7.219,3.19
		c5.411,0,9.798-4.387,9.798-9.798C509.798,617.965,508.277,615.148,505.931,613.358z"/><path fill="none" stroke="#f8f8ff" stroke-linecap="round" stroke-linejoin="round" stroke-miterlimit="10" stroke-width="2" d="
		M494.354,621.144c0-3.118,2.528-5.646,5.646-5.646"/><line x1="487.708" x2="512.292" y1="675.333" y2="675.333" fill="none" stroke="#31306b" stroke-linecap="round" stroke-linejoin="round" stroke-miterlimit="10" stroke-width="6"/><path fill="#94b7e0" d="M641.5,480h-283c-4.418,0-8-3.582-8-8v0c0-4.418,3.582-8,8-8h283
		c4.418,0,8,3.582,8,8v0C649.5,476.418,645.918,480,641.5,480z"/><path fill="#81aad3" d="M641.5,464h-283c-4.418,0-8,3.582-8,8h299C649.5,467.582,645.918,464,641.5,464z"/><path fill="none" stroke="#31306b" stroke-linecap="round" stroke-linejoin="round" stroke-miterlimit="10" stroke-width="6" d="
		M641.5,480h-283c-4.418,0-8-3.582-8-8v0c0-4.418,3.582-8,8-8h283c4.418,0,8,3.582,8,8v0C649.5,476.418,645.918,480,641.5,480z"/><circle cx="563.692" cy="440.341" r="8.5" fill="#2b2b60"/><circle cx="563.691" cy="440.341" r="7.5" fill="#3a4f89"/><circle cx="586.308" cy="440.341" r="8.5" fill="#2b2b60"/><circle cx="586.309" cy="440.341" r="7.5" fill="#3a4f89"/><rect width="44" height="24" x="399.208" y="456" fill="#3a4f89"/><rect width="44" height="12" x="399.208" y="456" fill="#334684"/><rect width="44" height="24" x="552.958" y="456" fill="#3a4f89"/><rect width="44" height="12" x="552.958" y="456" fill="#334684"/><rect width="44" height="24" x="399.208" y="456" fill="none" stroke="#31306b" stroke-linecap="round" stroke-linejoin="round" stroke-miterlimit="10" stroke-width="6"/><rect width="44" height="24" x="552.958" y="456" fill="none" stroke="#31306b" stroke-linecap="round" stroke-linejoin="round" stroke-miterlimit="10" stroke-width="6"/><line x1="414.333" x2="428" y1="322.333" y2="322.333" fill="none" stroke="#d4e3f4" stroke-linecap="round" stroke-linejoin="round" stroke-miterlimit="10" stroke-width="8"/><line x1="446.5" x2="499" y1="322.333" y2="322.333" fill="none" stroke="#d4e3f4" stroke-linecap="round" stroke-linejoin="round" stroke-miterlimit="10" stroke-width="8"/><rect width="234" height="90" x="383" y="498" fill="none" stroke="#31306b" stroke-linecap="round" stroke-linejoin="round" stroke-miterlimit="10" stroke-width="6"/><rect width="18" height="18" x="599" y="498" fill="#b4cae9"/><rect width="18" height="18" x="581" y="498" fill="#b4cae9"/><rect width="18" height="18" x="563" y="498" fill="#b4cae9"/><rect width="18" height="18" x="545" y="498" fill="#b4cae9"/><rect width="18" height="18" x="527" y="498" fill="#b4cae9"/><rect width="18" height="18" x="509" y="498" fill="#b4cae9"/><rect width="18" height="18" x="491" y="498" fill="#b4cae9"/><rect width="18" height="18" x="473" y="498" fill="#b4cae9"/><rect width="18" height="18" x="455" y="498" fill="#b4cae9"/><rect width="18" height="18" x="437" y="498" fill="#b4cae9"/><rect width="18" height="18" x="419" y="498" fill="#b4cae9"/><rect width="18" height="18" x="401" y="498" fill="#b4cae9"/><rect width="18" height="18" x="383" y="498" fill="#b4cae9"/><g><rect width="27" height="18" x="590" y="516" fill="#b4cae9"/><rect width="18" height="18" x="572" y="516" fill="#b4cae9"/><rect width="18" height="18" x="554" y="516" fill="#b4cae9"/><rect width="18" height="18" x="536" y="516" fill="#b4cae9"/><rect width="18" height="18" x="518" y="516" fill="#b4cae9"/><rect width="18" height="18" x="500" y="516" fill="#b4cae9"/><rect width="18" height="18" x="482" y="516" fill="#b4cae9"/><rect width="18" height="18" x="464" y="516" fill="#b4cae9"/><rect width="18" height="18" x="446" y="516" fill="#b4cae9"/><rect width="18" height="18" x="428" y="516" fill="#b4cae9"/><rect width="18" height="18" x="410" y="516" fill="#b4cae9"/><rect width="27" height="18" x="383" y="516" fill="#b4cae9"/></g><g><rect width="45" height="18" x="572" y="552" fill="#b4cae9"/><rect width="18" height="18" x="554" y="552" fill="#b4cae9"/><rect width="18" height="18" x="536" y="552" fill="#b4cae9"/><rect width="18" height="18" x="518" y="552" fill="#b4cae9"/><rect width="18" height="18" x="500" y="552" fill="#b4cae9"/><rect width="18" height="18" x="482" y="552" fill="#b4cae9"/><rect width="18" height="18" x="464" y="552" fill="#b4cae9"/><rect width="18" height="18" x="446" y="552" fill="#b4cae9"/><rect width="18" height="18" x="428" y="552" fill="#b4cae9"/><rect width="45" height="18" x="383" y="552" fill="#b4cae9"/></g><g><rect width="36" height="18" x="581" y="534" fill="#b4cae9"/><rect width="18" height="18" x="563" y="534" fill="#b4cae9"/><rect width="18" height="18" x="545" y="534" fill="#b4cae9"/><rect width="18" height="18" x="527" y="534" fill="#b4cae9"/><rect width="18" height="18" x="509" y="534" fill="#b4cae9"/><rect width="18" height="18" x="491" y="534" fill="#b4cae9"/><rect width="18" height="18" x="473" y="534" fill="#b4cae9"/><rect width="18" height="18" x="455" y="534" fill="#b4cae9"/><rect width="18" height="18" x="437" y="534" fill="#b4cae9"/><rect width="18" height="18" x="419" y="534" fill="#b4cae9"/><rect width="36" height="18" x="383" y="534" fill="#b4cae9"/></g><g><rect width="18" height="18" x="599" y="570" fill="#b4cae9"/><rect width="18" height="18" x="581" y="570" fill="#b4cae9"/><rect width="18" height="18" x="563" y="570" fill="#b4cae9"/><rect width="18" height="18" x="545" y="570" fill="#b4cae9"/><rect width="93.833" height="18" x="451.167" y="570" fill="#b4cae9"/><rect width="32.167" height="18" x="419" y="570" fill="#b4cae9"/><rect width="18" height="18" x="401" y="570" fill="#b4cae9"/><rect width="18" height="18" x="383" y="570" fill="#b4cae9"/></g><g><rect width="18" height="18" x="599" y="498" fill="none" stroke="#31306b" stroke-linecap="round" stroke-linejoin="round" stroke-miterlimit="10" stroke-width="4"/><rect width="18" height="18" x="581" y="498" fill="none" stroke="#31306b" stroke-linecap="round" stroke-linejoin="round" stroke-miterlimit="10" stroke-width="4"/><rect width="18" height="18" x="563" y="498" fill="none" stroke="#31306b" stroke-linecap="round" stroke-linejoin="round" stroke-miterlimit="10" stroke-width="4"/><rect width="18" height="18" x="545" y="498" fill="none" stroke="#31306b" stroke-linecap="round" stroke-linejoin="round" stroke-miterlimit="10" stroke-width="4"/><rect width="18" height="18" x="527" y="498" fill="none" stroke="#31306b" stroke-linecap="round" stroke-linejoin="round" stroke-miterlimit="10" stroke-width="4"/><rect width="18" height="18" x="509" y="498" fill="none" stroke="#31306b" stroke-linecap="round" stroke-linejoin="round" stroke-miterlimit="10" stroke-width="4"/><rect width="18" height="18" x="491" y="498" fill="none" stroke="#31306b" stroke-linecap="round" stroke-linejoin="round" stroke-miterlimit="10" stroke-width="4"/><rect width="18" height="18" x="473" y="498" fill="none" stroke="#31306b" stroke-linecap="round" stroke-linejoin="round" stroke-miterlimit="10" stroke-width="4"/><rect width="18" height="18" x="455" y="498" fill="none" stroke="#31306b" stroke-linecap="round" stroke-linejoin="round" stroke-miterlimit="10" stroke-width="4"/><rect width="18" height="18" x="437" y="498" fill="none" stroke="#31306b" stroke-linecap="round" stroke-linejoin="round" stroke-miterlimit="10" stroke-width="4"/><rect width="18" height="18" x="419" y="498" fill="none" stroke="#31306b" stroke-linecap="round" stroke-linejoin="round" stroke-miterlimit="10" stroke-width="4"/><rect width="18" height="18" x="401" y="498" fill="none" stroke="#31306b" stroke-linecap="round" stroke-linejoin="round" stroke-miterlimit="10" stroke-width="4"/><rect width="18" height="18" x="383" y="498" fill="none" stroke="#31306b" stroke-linecap="round" stroke-linejoin="round" stroke-miterlimit="10" stroke-width="4"/></g><g><rect width="27" height="18" x="590" y="516" fill="none" stroke="#31306b" stroke-linecap="round" stroke-linejoin="round" stroke-miterlimit="10" stroke-width="4"/><rect width="18" height="18" x="572" y="516" fill="none" stroke="#31306b" stroke-linecap="round" stroke-linejoin="round" stroke-miterlimit="10" stroke-width="4"/><rect width="18" height="18" x="554" y="516" fill="none" stroke="#31306b" stroke-linecap="round" stroke-linejoin="round" stroke-miterlimit="10" stroke-width="4"/><rect width="18" height="18" x="536" y="516" fill="none" stroke="#31306b" stroke-linecap="round" stroke-linejoin="round" stroke-miterlimit="10" stroke-width="4"/><rect width="18" height="18" x="518" y="516" fill="none" stroke="#31306b" stroke-linecap="round" stroke-linejoin="round" stroke-miterlimit="10" stroke-width="4"/><rect width="18" height="18" x="500" y="516" fill="none" stroke="#31306b" stroke-linecap="round" stroke-linejoin="round" stroke-miterlimit="10" stroke-width="4"/><rect width="18" height="18" x="482" y="516" fill="none" stroke="#31306b" stroke-linecap="round" stroke-linejoin="round" stroke-miterlimit="10" stroke-width="4"/><rect width="18" height="18" x="464" y="516" fill="none" stroke="#31306b" stroke-linecap="round" stroke-linejoin="round" stroke-miterlimit="10" stroke-width="4"/><rect width="18" height="18" x="446" y="516" fill="none" stroke="#31306b" stroke-linecap="round" stroke-linejoin="round" stroke-miterlimit="10" stroke-width="4"/><rect width="18" height="18" x="428" y="516" fill="none" stroke="#31306b" stroke-linecap="round" stroke-linejoin="round" stroke-miterlimit="10" stroke-width="4"/><rect width="18" height="18" x="410" y="516" fill="none" stroke="#31306b" stroke-linecap="round" stroke-linejoin="round" stroke-miterlimit="10" stroke-width="4"/><rect width="27" height="18" x="383" y="516" fill="none" stroke="#31306b" stroke-linecap="round" stroke-linejoin="round" stroke-miterlimit="10" stroke-width="4"/></g><g><rect width="45" height="18" x="572" y="552" fill="none" stroke="#31306b" stroke-linecap="round" stroke-linejoin="round" stroke-miterlimit="10" stroke-width="4"/><rect width="18" height="18" x="554" y="552" fill="none" stroke="#31306b" stroke-linecap="round" stroke-linejoin="round" stroke-miterlimit="10" stroke-width="4"/><rect width="18" height="18" x="536" y="552" fill="none" stroke="#31306b" stroke-linecap="round" stroke-linejoin="round" stroke-miterlimit="10" stroke-width="4"/><rect width="18" height="18" x="518" y="552" fill="none" stroke="#31306b" stroke-linecap="round" stroke-linejoin="round" stroke-miterlimit="10" stroke-width="4"/><rect width="18" height="18" x="500" y="552" fill="none" stroke="#31306b" stroke-linecap="round" stroke-linejoin="round" stroke-miterlimit="10" stroke-width="4"/><rect width="18" height="18" x="482" y="552" fill="none" stroke="#31306b" stroke-linecap="round" stroke-linejoin="round" stroke-miterlimit="10" stroke-width="4"/><rect width="18" height="18" x="464" y="552" fill="none" stroke="#31306b" stroke-linecap="round" stroke-linejoin="round" stroke-miterlimit="10" stroke-width="4"/><rect width="18" height="18" x="446" y="552" fill="none" stroke="#31306b" stroke-linecap="round" stroke-linejoin="round" stroke-miterlimit="10" stroke-width="4"/><rect width="18" height="18" x="428" y="552" fill="none" stroke="#31306b" stroke-linecap="round" stroke-linejoin="round" stroke-miterlimit="10" stroke-width="4"/><rect width="45" height="18" x="383" y="552" fill="none" stroke="#31306b" stroke-linecap="round" stroke-linejoin="round" stroke-miterlimit="10" stroke-width="4"/></g><g><rect width="36" height="18" x="581" y="534" fill="none" stroke="#31306b" stroke-linecap="round" stroke-linejoin="round" stroke-miterlimit="10" stroke-width="4"/><rect width="18" height="18" x="563" y="534" fill="none" stroke="#31306b" stroke-linecap="round" stroke-linejoin="round" stroke-miterlimit="10" stroke-width="4"/><rect width="18" height="18" x="545" y="534" fill="none" stroke="#31306b" stroke-linecap="round" stroke-linejoin="round" stroke-miterlimit="10" stroke-width="4"/><rect width="18" height="18" x="527" y="534" fill="none" stroke="#31306b" stroke-linecap="round" stroke-linejoin="round" stroke-miterlimit="10" stroke-width="4"/><rect width="18" height="18" x="509" y="534" fill="none" stroke="#31306b" stroke-linecap="round" stroke-linejoin="round" stroke-miterlimit="10" stroke-width="4"/><rect width="18" height="18" x="491" y="534" fill="none" stroke="#31306b" stroke-linecap="round" stroke-linejoin="round" stroke-miterlimit="10" stroke-width="4"/><rect width="18" height="18" x="473" y="534" fill="none" stroke="#31306b" stroke-linecap="round" stroke-linejoin="round" stroke-miterlimit="10" stroke-width="4"/><rect width="18" height="18" x="455" y="534" fill="none" stroke="#31306b" stroke-linecap="round" stroke-linejoin="round" stroke-miterlimit="10" stroke-width="4"/><rect width="18" height="18" x="437" y="534" fill="none" stroke="#31306b" stroke-linecap="round" stroke-linejoin="round" stroke-miterlimit="10" stroke-width="4"/><rect width="18" height="18" x="419" y="534" fill="none" stroke="#31306b" stroke-linecap="round" stroke-linejoin="round" stroke-miterlimit="10" stroke-width="4"/><rect width="36" height="18" x="383" y="534" fill="none" stroke="#31306b" stroke-linecap="round" stroke-linejoin="round" stroke-miterlimit="10" stroke-width="4"/></g><g><rect width="18" height="18" x="599" y="570" fill="none" stroke="#31306b" stroke-linecap="round" stroke-linejoin="round" stroke-miterlimit="10" stroke-width="4"/><rect width="18" height="18" x="581" y="570" fill="none" stroke="#31306b" stroke-linecap="round" stroke-linejoin="round" stroke-miterlimit="10" stroke-width="4"/><rect width="18" height="18" x="563" y="570" fill="none" stroke="#31306b" stroke-linecap="round" stroke-linejoin="round" stroke-miterlimit="10" stroke-width="4"/><rect width="18" height="18" x="545" y="570" fill="none" stroke="#31306b" stroke-linecap="round" stroke-linejoin="round" stroke-miterlimit="10" stroke-width="4"/><rect width="93.833" height="18" x="451.167" y="570" fill="none" stroke="#31306b" stroke-linecap="round" stroke-linejoin="round" stroke-miterlimit="10" stroke-width="4"/><rect width="32.167" height="18" x="419" y="570" fill="none" stroke="#31306b" stroke-linecap="round" stroke-linejoin="round" stroke-miterlimit="10" stroke-width="4"/><rect width="18" height="18" x="401" y="570" fill="none" stroke="#31306b" stroke-linecap="round" stroke-linejoin="round" stroke-miterlimit="10" stroke-width="4"/><rect width="18" height="18" x="383" y="570" fill="none" stroke="#31306b" stroke-linecap="round" stroke-linejoin="round" stroke-miterlimit="10" stroke-width="4"/></g><g opacity=".59"><path fill="#f3f8ff" d="M602 510v-8c0-.552.448-1 1-1h8c.552 0 1 .448 1 1v8c0 .552-.448 1-1 1h-8C602.448 511 602 510.552 602 510zM584 510v-8c0-.552.448-1 1-1h8c.552 0 1 .448 1 1v8c0 .552-.448 1-1 1h-8C584.448 511 584 510.552 584 510zM566 510v-8c0-.552.448-1 1-1h8c.552 0 1 .448 1 1v8c0 .552-.448 1-1 1h-8C566.448 511 566 510.552 566 510zM548 510v-8c0-.552.448-1 1-1h8c.552 0 1 .448 1 1v8c0 .552-.448 1-1 1h-8C548.448 511 548 510.552 548 510zM530 510v-8c0-.552.448-1 1-1h8c.552 0 1 .448 1 1v8c0 .552-.448 1-1 1h-8C530.448 511 530 510.552 530 510zM512 510v-8c0-.552.448-1 1-1h8c.552 0 1 .448 1 1v8c0 .552-.448 1-1 1h-8C512.448 511 512 510.552 512 510zM494 510v-8c0-.552.448-1 1-1h8c.552 0 1 .448 1 1v8c0 .552-.448 1-1 1h-8C494.448 511 494 510.552 494 510zM476 510v-8c0-.552.448-1 1-1h8c.552 0 1 .448 1 1v8c0 .552-.448 1-1 1h-8C476.448 511 476 510.552 476 510zM458 510v-8c0-.552.448-1 1-1h8c.552 0 1 .448 1 1v8c0 .552-.448 1-1 1h-8C458.448 511 458 510.552 458 510zM440 510v-8c0-.552.448-1 1-1h8c.552 0 1 .448 1 1v8c0 .552-.448 1-1 1h-8C440.448 511 440 510.552 440 510zM422 510v-8c0-.552.448-1 1-1h8c.552 0 1 .448 1 1v8c0 .552-.448 1-1 1h-8C422.448 511 422 510.552 422 510zM404 510v-8c0-.552.448-1 1-1h8c.552 0 1 .448 1 1v8c0 .552-.448 1-1 1h-8C404.448 511 404 510.552 404 510zM386 510v-8c0-.552.448-1 1-1h8c.552 0 1 .448 1 1v8c0 .552-.448 1-1 1h-8C386.448 511 386 510.552 386 510zM593 528v-8c0-.552.448-1 1-1h17c.552 0 1 .448 1 1v8c0 .552-.448 1-1 1h-17C593.448 529 593 528.552 593 528zM575 528v-8c0-.552.448-1 1-1h8c.552 0 1 .448 1 1v8c0 .552-.448 1-1 1h-8C575.448 529 575 528.552 575 528zM557 528v-8c0-.552.448-1 1-1h8c.552 0 1 .448 1 1v8c0 .552-.448 1-1 1h-8C557.448 529 557 528.552 557 528zM539 528v-8c0-.552.448-1 1-1h8c.552 0 1 .448 1 1v8c0 .552-.448 1-1 1h-8C539.448 529 539 528.552 539 528zM521 528v-8c0-.552.448-1 1-1h8c.552 0 1 .448 1 1v8c0 .552-.448 1-1 1h-8C521.448 529 521 528.552 521 528zM503 528v-8c0-.552.448-1 1-1h8c.552 0 1 .448 1 1v8c0 .552-.448 1-1 1h-8C503.448 529 503 528.552 503 528zM485 528v-8c0-.552.448-1 1-1h8c.552 0 1 .448 1 1v8c0 .552-.448 1-1 1h-8C485.448 529 485 528.552 485 528zM467 528v-8c0-.552.448-1 1-1h8c.552 0 1 .448 1 1v8c0 .552-.448 1-1 1h-8C467.448 529 467 528.552 467 528zM449 528v-8c0-.552.448-1 1-1h8c.552 0 1 .448 1 1v8c0 .552-.448 1-1 1h-8C449.448 529 449 528.552 449 528zM431 528v-8c0-.552.448-1 1-1h8c.552 0 1 .448 1 1v8c0 .552-.448 1-1 1h-8C431.448 529 431 528.552 431 528zM413 528v-8c0-.552.448-1 1-1h8c.552 0 1 .448 1 1v8c0 .552-.448 1-1 1h-8C413.448 529 413 528.552 413 528zM386 528v-8c0-.552.448-1 1-1h17c.552 0 1 .448 1 1v8c0 .552-.448 1-1 1h-17C386.448 529 386 528.552 386 528zM575 564v-8c0-.552.448-1 1-1h35c.552 0 1 .448 1 1v8c0 .552-.448 1-1 1h-35C575.448 565 575 564.552 575 564zM557 564v-8c0-.552.448-1 1-1h8c.552 0 1 .448 1 1v8c0 .552-.448 1-1 1h-8C557.448 565 557 564.552 557 564zM539 564v-8c0-.552.448-1 1-1h8c.552 0 1 .448 1 1v8c0 .552-.448 1-1 1h-8C539.448 565 539 564.552 539 564zM521 564v-8c0-.552.448-1 1-1h8c.552 0 1 .448 1 1v8c0 .552-.448 1-1 1h-8C521.448 565 521 564.552 521 564zM503 564v-8c0-.552.448-1 1-1h8c.552 0 1 .448 1 1v8c0 .552-.448 1-1 1h-8C503.448 565 503 564.552 503 564zM485 564v-8c0-.552.448-1 1-1h8c.552 0 1 .448 1 1v8c0 .552-.448 1-1 1h-8C485.448 565 485 564.552 485 564zM467 564v-8c0-.552.448-1 1-1h8c.552 0 1 .448 1 1v8c0 .552-.448 1-1 1h-8C467.448 565 467 564.552 467 564zM449 564v-8c0-.552.448-1 1-1h8c.552 0 1 .448 1 1v8c0 .552-.448 1-1 1h-8C449.448 565 449 564.552 449 564zM431 564v-8c0-.552.448-1 1-1h8c.552 0 1 .448 1 1v8c0 .552-.448 1-1 1h-8C431.448 565 431 564.552 431 564zM386 564v-8c0-.552.448-1 1-1h35c.552 0 1 .448 1 1v8c0 .552-.448 1-1 1h-35C386.448 565 386 564.552 386 564zM584 546v-8c0-.552.448-1 1-1h26c.552 0 1 .448 1 1v8c0 .552-.448 1-1 1h-26C584.448 547 584 546.552 584 546zM566 546v-8c0-.552.448-1 1-1h8c.552 0 1 .448 1 1v8c0 .552-.448 1-1 1h-8C566.448 547 566 546.552 566 546zM548 546v-8c0-.552.448-1 1-1h8c.552 0 1 .448 1 1v8c0 .552-.448 1-1 1h-8C548.448 547 548 546.552 548 546zM530 546v-8c0-.552.448-1 1-1h8c.552 0 1 .448 1 1v8c0 .552-.448 1-1 1h-8C530.448 547 530 546.552 530 546zM512 546v-8c0-.552.448-1 1-1h8c.552 0 1 .448 1 1v8c0 .552-.448 1-1 1h-8C512.448 547 512 546.552 512 546zM494 546v-8c0-.552.448-1 1-1h8c.552 0 1 .448 1 1v8c0 .552-.448 1-1 1h-8C494.448 547 494 546.552 494 546zM476 546v-8c0-.552.448-1 1-1h8c.552 0 1 .448 1 1v8c0 .552-.448 1-1 1h-8C476.448 547 476 546.552 476 546zM458 546v-8c0-.552.448-1 1-1h8c.552 0 1 .448 1 1v8c0 .552-.448 1-1 1h-8C458.448 547 458 546.552 458 546zM440 546v-8c0-.552.448-1 1-1h8c.552 0 1 .448 1 1v8c0 .552-.448 1-1 1h-8C440.448 547 440 546.552 440 546zM422 546v-8c0-.552.448-1 1-1h8c.552 0 1 .448 1 1v8c0 .552-.448 1-1 1h-8C422.448 547 422 546.552 422 546zM386 546v-8c0-.552.448-1 1-1h26c.552 0 1 .448 1 1v8c0 .552-.448 1-1 1h-26C386.448 547 386 546.552 386 546zM602 582v-8c0-.552.448-1 1-1h8c.552 0 1 .448 1 1v8c0 .552-.448 1-1 1h-8C602.448 583 602 582.552 602 582zM584 582v-8c0-.552.448-1 1-1h8c.552 0 1 .448 1 1v8c0 .552-.448 1-1 1h-8C584.448 583 584 582.552 584 582zM566 582v-8c0-.552.448-1 1-1h8c.552 0 1 .448 1 1v8c0 .552-.448 1-1 1h-8C566.448 583 566 582.552 566 582zM548 582v-8c0-.552.448-1 1-1h8c.552 0 1 .448 1 1v8c0 .552-.448 1-1 1h-8C548.448 583 548 582.552 548 582zM454.167 582v-8c0-.552.448-1 1-1H539c.552 0 1 .448 1 1v8c0 .552-.448 1-1 1h-83.833C454.614 583 454.167 582.552 454.167 582zM422 582v-8c0-.552.448-1 1-1h22.167c.552 0 1 .448 1 1v8c0 .552-.448 1-1 1H423C422.448 583 422 582.552 422 582zM404 582v-8c0-.552.448-1 1-1h8c.552 0 1 .448 1 1v8c0 .552-.448 1-1 1h-8C404.448 583 404 582.552 404 582zM386 582v-8c0-.552.448-1 1-1h8c.552 0 1 .448 1 1v8c0 .552-.448 1-1 1h-8C386.448 583 386 582.552 386 582z"/></g><g><path fill="#8de57a" d="M412.624,430.137c-0.217-0.02-0.436-0.033-0.659-0.033
			c-2.222,0-4.195,1.045-5.469,2.666h6.931C412.997,431.972,412.713,431.084,412.624,430.137z"/><path fill="#ffd261" d="M416.322,435.635c-1.228-0.645-2.237-1.644-2.895-2.865h-6.931
			c-0.649,0.826-1.119,1.799-1.341,2.865H416.322z"/><path fill="#ff795a" d="M416.322,435.635h-11.167c-0.096,0.461-0.148,0.938-0.148,1.428
			c0,0.493,0.053,0.973,0.15,1.437h13.616c0.097-0.464,0.15-0.944,0.15-1.437c0-0.222-0.013-0.442-0.033-0.659
			C417.969,436.317,417.103,436.045,416.322,435.635z"/><path fill="#d856c9" d="M417.427,441.364c0.651-0.825,1.122-1.799,1.346-2.865h-13.616
			c0.224,1.066,0.695,2.039,1.346,2.865H417.427z"/><path fill="#6388e1" d="M411.965,444.02c2.217,0,4.188-1.041,5.462-2.656h-10.924
			C407.777,442.98,409.748,444.02,411.965,444.02z"/></g><line x1="426.563" x2="456.313" y1="435.635" y2="435.635" fill="none" stroke="#31306b" stroke-linecap="round" stroke-linejoin="round" stroke-miterlimit="10" stroke-width="4"/><line x1="425.688" x2="441.438" y1="441.932" y2="441.932" fill="none" stroke="#31306b" stroke-linecap="round" stroke-linejoin="round" stroke-miterlimit="10" stroke-width="2"/><path fill="none" stroke="#31306b" stroke-linecap="round" stroke-linejoin="round" stroke-miterlimit="10" stroke-width="6" d="
		M527,280.337c-9.004-0.224-18.007-0.337-27-0.337s-17.996,0.113-27,0.337"/><path fill="#31306b" d="M505.809,286.25h-11.618c-1.553,0-2.813-1.259-2.813-2.813v-1.625
		c0-1.553,1.259-2.813,2.813-2.813h11.618c1.553,0,2.813,1.259,2.813,2.813v1.625C508.622,284.991,507.363,286.25,505.809,286.25z"/></g></svg>