<svg width="30" height="30" viewBox="0 0 30 30" fill="none" xmlns="http://www.w3.org/2000/svg">
<path d="M15 2.80837C12.0318 2.8085 9.16058 3.86476 6.89996 5.78818C4.63934 7.7116 3.13688 10.3766 2.66142 13.3065C2.18596 16.2363 2.76853 19.2397 4.30488 21.7793C5.84123 24.3189 8.23111 26.229 11.0469 27.1677C11.6719 27.2771 11.9063 26.9021 11.9063 26.574C11.9063 26.2771 11.8906 25.2927 11.8906 24.2459C8.75 24.824 7.9375 23.4803 7.6875 22.7772C7.4101 22.0933 6.97035 21.4873 6.40625 21.0115C5.96875 20.7771 5.34375 20.199 6.39062 20.1834C6.79035 20.2268 7.17374 20.3659 7.50829 20.5889C7.84285 20.8119 8.11871 21.1123 8.3125 21.4646C8.48347 21.7717 8.71335 22.0421 8.98899 22.2602C9.26463 22.4784 9.5806 22.6399 9.91879 22.7357C10.257 22.8315 10.6108 22.8597 10.9599 22.8185C11.3089 22.7773 11.6465 22.6677 11.9531 22.4959C12.0072 21.8604 12.2904 21.2662 12.75 20.824C9.96875 20.5115 7.0625 19.4334 7.0625 14.6522C7.04494 13.4098 7.50336 12.2079 8.34375 11.2928C7.96161 10.2131 8.00632 9.02814 8.46875 7.98029C8.46875 7.98029 9.51559 7.65215 11.9063 9.26153C13.9516 8.699 16.1109 8.699 18.1563 9.26153C20.5469 7.63654 21.5938 7.98029 21.5938 7.98029C22.0563 9.02813 22.101 10.2131 21.7188 11.2928C22.5617 12.2063 23.0205 13.4093 23 14.6522C23 19.449 20.0781 20.5115 17.2969 20.824C17.5952 21.1264 17.8249 21.4894 17.9705 21.8884C18.1161 22.2874 18.1741 22.7131 18.1406 23.1365C18.1406 24.8084 18.125 26.1521 18.125 26.574C18.125 26.9022 18.3594 27.2928 18.9844 27.1678C21.7952 26.2214 24.1782 24.3068 25.708 21.7659C27.2378 19.225 27.8149 16.2232 27.3361 13.2962C26.8573 10.3692 25.354 7.70759 23.0943 5.78651C20.8347 3.86544 17.9659 2.80992 15 2.80837Z" fill="white"/>
</svg>
