<svg width="232" height="232" viewBox="0 0 232 232" fill="none" xmlns="http://www.w3.org/2000/svg">
<path fill-rule="evenodd" clip-rule="evenodd" d="M116 222C174.542 222 222 174.542 222 116C222 57.4578 174.542 10 116 10C57.4578 10 10 57.4578 10 116C10 174.542 57.4578 222 116 222ZM116 232C180.065 232 232 180.065 232 116C232 51.935 180.065 0 116 0C51.935 0 0 51.935 0 116C0 180.065 51.935 232 116 232Z" fill="#14C3FF"/>
<path fill="white" d="M63.6484 137.668V121.893H74.832C77.1377 121.893 78.7859 122.286 79.9186 122.912L79.933 122.92L79.9475 122.928C81.0988 123.54 81.8856 124.385 82.381 125.494L82.3882 125.51L82.3956 125.526C82.9621 126.736 83.2812 128.241 83.2812 130.098C83.2812 131.665 82.9537 132.971 82.3536 134.072C81.7879 135.109 80.9002 135.98 79.5876 136.665C78.3292 137.291 76.5697 137.668 74.1973 137.668H63.6484ZM61.6484 153.094H63.6484H74.1973C79.8743 153.094 84.8021 152.289 88.9169 150.602C93.0885 148.905 96.349 146.331 98.5853 142.848L98.5904 142.84C100.822 139.328 101.881 135.093 101.881 130.244C101.881 127.084 101.197 124.098 99.8235 121.312C98.4291 118.415 96.2012 116.103 93.2376 114.365C93.118 114.293 92.9971 114.222 92.875 114.153C95.096 112.606 96.8347 110.703 98.0327 108.431C99.5282 105.655 100.27 102.628 100.27 99.3848C100.27 95.8272 99.6245 92.6445 98.2544 89.902C96.898 87.1541 94.9318 84.8805 92.3852 83.0979C89.8612 81.3311 86.8344 80.0541 83.3535 79.2266C79.9151 78.4016 76.0601 78 71.8047 78H47H45V80V151.094V153.094H47H49.3303H52.5664H61.6484ZM80.6137 104.661C80.0276 105.586 79.1014 106.368 77.6936 106.955C76.2852 107.51 74.3503 107.834 71.8047 107.834H63.6484V93.4746H71.8047C74.411 93.4746 76.3893 93.7724 77.8192 94.285L77.8192 94.2851L77.8303 94.289C79.2257 94.7799 80.0986 95.5061 80.633 96.4038L80.6419 96.4188L80.651 96.4336C81.2411 97.3868 81.6211 98.7756 81.6211 100.752C81.6211 102.4 81.2533 103.666 80.6204 104.651L80.6203 104.651L80.6137 104.661ZM158.982 117.777C158.947 113.28 157.916 109.283 155.81 105.865C153.757 102.448 150.904 99.8167 147.292 97.9921C143.709 96.1653 139.596 95.2852 135.01 95.2852C130.719 95.2852 126.879 96.006 123.542 97.5132C120.253 98.9987 117.481 101.084 115.26 103.769C113.06 106.396 111.426 109.467 110.346 112.951C109.271 116.386 108.742 120.071 108.742 123.994V125.41C108.742 129.304 109.272 132.988 110.346 136.452L110.347 136.457C111.429 139.91 113.061 142.976 115.255 145.63L115.264 145.64C117.486 148.292 120.257 150.359 123.542 151.842L123.549 151.846C126.917 153.35 130.786 154.07 135.107 154.07C139.45 154.07 143.437 153.2 147.03 151.421L147.037 151.418L147.044 151.414C150.614 149.611 153.501 147.13 155.656 143.968L155.662 143.96C157.849 140.717 158.947 137.025 158.982 132.947L159 130.93H156.982H143.75H141.789L141.75 132.89C141.724 134.236 141.4 135.319 140.838 136.207L140.835 136.213L140.831 136.22C140.288 137.093 139.532 137.791 138.51 138.318C137.493 138.811 136.277 139.084 134.814 139.084C132.989 139.084 131.711 138.712 130.826 138.138C129.84 137.496 129.047 136.618 128.449 135.453C127.844 134.211 127.412 132.75 127.177 131.045C126.93 129.254 126.805 127.376 126.805 125.41V123.994C126.805 122.033 126.929 120.178 127.174 118.427C127.441 116.711 127.893 115.237 128.506 113.984L128.51 113.976L128.513 113.968C129.082 112.779 129.854 111.899 130.826 111.267L130.841 111.257L130.855 111.248C131.739 110.651 132.993 110.271 134.766 110.271C136.377 110.271 137.576 110.637 138.481 111.248L138.504 111.264L138.529 111.279C139.544 111.923 140.3 112.775 140.822 113.869L140.83 113.886L140.838 113.902C141.408 115.043 141.723 116.341 141.75 117.83L141.787 119.793H143.75H156.982H158.998L158.982 117.777ZM169.587 137.636L169.579 137.644L169.571 137.652C167.737 139.444 166.82 141.709 166.82 144.307C166.82 146.904 167.737 149.169 169.571 150.962L169.579 150.969L169.587 150.977C171.493 152.798 173.959 153.631 176.779 153.631C179.594 153.631 182.052 152.801 183.931 150.969C185.798 149.182 186.738 146.915 186.738 144.307C186.738 141.699 185.798 139.432 183.931 137.644C182.053 135.813 179.594 134.982 176.779 134.982C173.959 134.982 171.493 135.815 169.587 137.636Z" stroke="white" stroke-width="4" />
</svg>
