<svg width="69" height="27" viewBox="0 0 69 27" fill="none" xmlns="http://www.w3.org/2000/svg">
<path d="M1.58691 23V5.22656H7.8125C9.96908 5.22656 11.6048 5.6416 12.7197 6.47168C13.8346 7.29362 14.3921 8.50212 14.3921 10.0972C14.3921 10.9679 14.1683 11.737 13.7207 12.4043C13.2731 13.0635 12.6506 13.5477 11.853 13.8569C12.7645 14.0848 13.4806 14.5446 14.0015 15.2363C14.5304 15.9281 14.7949 16.7744 14.7949 17.7754C14.7949 19.4844 14.2497 20.7783 13.1592 21.6572C12.0687 22.5361 10.5143 22.9837 8.49609 23H1.58691ZM5.24902 15.2607V20.0581H8.38623C9.24886 20.0581 9.92025 19.8547 10.4004 19.4478C10.8887 19.0327 11.1328 18.4631 11.1328 17.7388C11.1328 16.1112 10.2905 15.2852 8.60596 15.2607H5.24902ZM5.24902 12.6729H7.95898C9.80632 12.6403 10.73 11.9038 10.73 10.4634C10.73 9.65771 10.494 9.07992 10.022 8.72998C9.55811 8.37191 8.82161 8.19287 7.8125 8.19287H5.24902V12.6729ZM32.1533 14.5161C32.1533 16.2658 31.8441 17.7998 31.2256 19.1182C30.6071 20.4365 29.7201 21.4538 28.5645 22.1699C27.417 22.8861 26.0986 23.2441 24.6094 23.2441C23.1364 23.2441 21.8221 22.8901 20.6665 22.1821C19.5109 21.4741 18.6157 20.465 17.981 19.1548C17.3462 17.8364 17.0247 16.3228 17.0166 14.6138V13.7349C17.0166 11.9852 17.3299 10.4471 17.9565 9.12061C18.5913 7.78597 19.4824 6.76465 20.6299 6.05664C21.7855 5.34049 23.1038 4.98242 24.585 4.98242C26.0661 4.98242 27.3804 5.34049 28.5278 6.05664C29.6834 6.76465 30.5745 7.78597 31.2012 9.12061C31.8359 10.4471 32.1533 11.9811 32.1533 13.7227V14.5161ZM28.4424 13.7104C28.4424 11.8468 28.1087 10.4308 27.4414 9.4624C26.7741 8.49398 25.8219 8.00977 24.585 8.00977C23.3561 8.00977 22.408 8.48991 21.7407 9.4502C21.0734 10.4023 20.7357 11.8021 20.7275 13.6494V14.5161C20.7275 16.3309 21.0612 17.7388 21.7285 18.7397C22.3958 19.7407 23.3561 20.2412 24.6094 20.2412C25.8382 20.2412 26.7822 19.7611 27.4414 18.8008C28.1006 17.8324 28.4342 16.4245 28.4424 14.5771V13.7104Z" fill="white"/>
<rect x="39" y="11" width="30" height="7" fill="url(#paint0_linear_6_10)"/>
<defs>
<linearGradient id="paint0_linear_6_10" x1="39" y1="11" x2="69" y2="24" gradientUnits="userSpaceOnUse">
<stop stop-color="#F7FC01"/>
<stop offset="1" stop-color="#0EFED3" stop-opacity="0"/>
</linearGradient>
</defs>
</svg>
