<svg width="40" height="40" viewBox="0 0 40 40" fill="none" xmlns="http://www.w3.org/2000/svg">
<g clip-path="url(#clip0_8_43)">
<path d="M15.69 35.0453C14.6633 35.6403 14.4683 35.7103 13.5033 36.052C13.27 36.132 12.9167 36.2737 13.6367 36.687L18.47 39.5837C18.9317 39.8553 19.465 39.997 19.99 39.997L19.9933 40.0003C20.525 40.0003 21.05 39.857 21.5117 39.587L35.9817 31.1253C36.9217 30.5703 37.5017 29.5453 37.5017 28.4503V11.537C37.5017 10.4337 36.9233 9.40868 35.9817 8.86201L21.5117 0.392012C20.6033 -0.131322 19.3883 -0.131322 18.4717 0.392012L4.01833 8.85368C3.08 9.40201 2.5 10.4337 2.5 11.5287V28.442C2.5 29.5453 3.07833 30.5703 4.01833 31.117L7.81 33.332C9.64333 34.2537 10.3 34.2537 11.1383 34.2537C13.8567 34.2537 15.4233 32.587 15.4233 29.682V12.9753C15.4233 12.7387 15.2283 12.5553 15 12.5553H13.1667C12.9317 12.5553 12.7433 12.737 12.7433 12.9753V29.6737C12.7433 30.967 11.4267 32.2453 9.27167 31.1587L5.30833 28.8403C5.17 28.7687 5.08333 28.6103 5.08333 28.4503V11.537C5.08333 11.372 5.17 11.212 5.31 11.132L19.7633 2.67035C19.895 2.59035 20.0767 2.59035 20.21 2.67035L34.6717 11.1237C34.8117 11.2103 34.8983 11.362 34.8983 11.5287V28.4503C34.8983 28.607 34.8133 28.767 34.68 28.847L20.21 37.3087C20.085 37.3887 19.8967 37.3887 19.7633 37.3087L16.05 35.0787C15.94 35.007 15.8 34.982 15.69 35.0453Z" fill="white"/>
<path d="M24.4567 25.7817C20.6267 25.7817 19.7867 24.805 19.5067 22.8767C19.475 22.67 19.3033 22.52 19.0917 22.52H17.22C16.985 22.52 16.805 22.71 16.805 22.94C16.805 25.4083 18.1283 28.3533 24.465 28.3533C29.0383 28.345 31.6733 26.5133 31.6733 23.3217L31.6683 23.3233C31.6683 20.1567 29.5533 19.315 25.1117 18.72C20.615 18.1167 20.1617 17.8067 20.1617 16.7433C20.1617 15.8633 20.5467 14.6883 23.875 14.6883C26.845 14.6883 27.9417 15.3383 28.395 17.37C28.4333 17.5617 28.6067 17.7033 28.8033 17.7033H30.6833C30.8 17.7033 30.91 17.6567 30.9883 17.5683C31.0667 17.48 31.105 17.3617 31.0983 17.2433C30.8083 13.7433 28.5133 12.1167 23.875 12.1167C19.7467 12.1167 17.2867 13.88 17.2867 16.8383C17.2867 20.045 19.7383 20.935 23.695 21.33C28.435 21.8 28.8017 22.505 28.8017 23.45C28.805 25.085 27.505 25.7817 24.4567 25.7817Z" fill="white"/>
</g>
<defs>
<clipPath id="clip0_8_43">
<rect width="40" height="40" fill="white"/>
</clipPath>
</defs>
</svg>
