<svg width="40" height="40" viewBox="0 0 40 40" fill="none" xmlns="http://www.w3.org/2000/svg">
<path d="M18.505 17.3966C17.9951 17.6909 17.584 18.1298 17.3237 18.6578C17.0633 19.1858 16.9653 19.7792 17.0422 20.3629C17.119 20.9466 17.3672 21.4943 17.7554 21.9369C18.1436 22.3796 18.6543 22.6971 19.2229 22.8495C19.7916 23.0018 20.3927 22.9821 20.9501 22.7929C21.5076 22.6036 21.9964 22.2533 22.3548 21.7862C22.7131 21.3192 22.925 20.7563 22.9634 20.1689C23.0019 19.5814 22.8653 18.9957 22.5709 18.4859C22.1762 17.8023 21.5261 17.3035 20.7636 17.0992C20.0011 16.8949 19.1886 17.0019 18.505 17.3966ZM31.8462 20.626C31.6507 20.4027 31.4445 20.1788 31.2276 19.9542C31.3791 19.7949 31.5258 19.6358 31.6676 19.4767C34.3439 16.4696 35.4735 13.4539 34.4269 11.6408C33.4232 9.90251 30.4378 9.38448 26.7003 10.1112C26.3322 10.1832 25.9661 10.2645 25.602 10.3549C25.5323 10.1147 25.4582 9.87577 25.3796 9.63826C24.1117 5.81738 22.0635 3.33203 19.9701 3.33334C17.9627 3.33426 16.0226 5.66183 14.785 9.26251C14.6632 9.61772 14.5506 9.97589 14.4471 10.337C14.2036 10.2773 13.9592 10.2221 13.7137 10.1715C9.7704 9.36189 6.59428 9.89512 5.54966 11.7092C4.548 13.4488 5.59555 16.2922 8.09718 19.1627C8.34528 19.4467 8.6004 19.7244 8.86255 19.9956C8.55351 20.314 8.26088 20.6321 7.98813 20.9485C5.54713 23.7785 4.55948 26.5754 5.55953 28.3075C6.59235 30.0966 9.72376 30.6814 13.5352 29.9314C13.8441 29.8702 14.1513 29.8013 14.4567 29.7248C14.5686 30.1154 14.6914 30.5026 14.825 30.8864C16.0572 34.4149 17.9864 36.6675 19.9866 36.6668C22.0524 36.6655 24.1232 34.2453 25.3779 30.5689C25.477 30.2783 25.5708 29.9766 25.6597 29.6659C26.0543 29.7641 26.4514 29.8512 26.8511 29.9273C30.5233 30.622 33.4386 30.0756 34.4368 28.3423C35.4676 26.5518 34.4048 23.5489 31.8461 20.626H31.8462ZM6.78365 12.4197C7.42675 11.3031 10.0224 10.8674 13.4271 11.5664C13.6447 11.6112 13.866 11.6612 14.0911 11.7164C13.7587 13.1869 13.5241 14.6777 13.389 16.1792C12.1605 17.0434 10.9892 17.9863 9.8825 19.0019C9.63866 18.7497 9.40134 18.4914 9.17053 18.227L9.17063 18.2271C7.02718 15.7676 6.18 13.468 6.78365 12.4197ZM13.2614 21.9666C12.4105 21.3222 11.6197 20.6621 10.9019 19.9982C11.6192 19.3384 12.4105 18.6806 13.2597 18.038C13.2292 18.6926 13.214 19.3477 13.2143 20.0033C13.2148 20.658 13.2305 21.3124 13.2614 21.9666ZM13.2604 28.5342C11.8158 28.8554 10.3245 28.9081 8.86088 28.6895C8.45966 28.6582 8.0691 28.545 7.71335 28.3569C7.3576 28.1688 7.04421 27.9097 6.79255 27.5956C6.18576 26.5445 6.97881 24.299 9.06641 21.8786C9.32887 21.5752 9.59993 21.2798 9.8796 20.9923C10.9865 22.0132 12.1597 22.9598 13.3915 23.8258C13.5285 25.3464 13.7658 26.8564 14.1018 28.3458C13.8229 28.4155 13.5425 28.4783 13.2604 28.5342ZM25.0956 15.1353C24.5366 14.7831 23.9707 14.4422 23.3979 14.1126C22.8343 13.7881 22.2638 13.4759 21.6866 13.1758C22.6749 12.7602 23.6464 12.4053 24.5843 12.1161C24.8054 13.1133 24.9761 14.1209 25.0956 15.1353ZM16.1317 9.72536C17.192 6.64013 18.761 4.75781 19.9709 4.75729C21.2593 4.75668 22.9334 6.78773 24.0281 10.0867C24.0992 10.3017 24.1664 10.518 24.2297 10.7355C22.7916 11.1815 21.3845 11.7223 20.0178 12.3541C18.6568 11.7148 17.2541 11.1681 15.8195 10.7176C15.9154 10.3843 16.0194 10.0536 16.1317 9.72536ZM15.4644 12.0983C16.4427 12.4063 17.4048 12.7634 18.3472 13.1683C17.1796 13.7709 16.0421 14.4272 14.9349 15.1373C15.0687 14.074 15.2467 13.0552 15.4644 12.0983ZM14.9373 24.8661C15.4895 25.2196 16.0497 25.56 16.618 25.8874C17.1978 26.2211 17.7852 26.5409 18.3803 26.8466C17.4308 27.2655 16.4604 27.6354 15.4729 27.9548C15.2527 26.9847 15.0727 25.948 14.9373 24.8661ZM24.0301 30.1086C23.5867 31.5205 22.8873 32.8387 21.9667 33.9974L21.9666 33.9975C21.7391 34.3294 21.4459 34.6111 21.1052 34.8253C20.7646 35.0394 20.3836 35.1814 19.9859 35.2425C18.7722 35.2432 17.2231 33.4342 16.1693 30.4167C16.0452 30.06 15.9311 29.7 15.8268 29.3368C17.2683 28.8717 18.6767 28.3095 20.0421 27.6539C21.4201 28.2899 22.8384 28.8347 24.2877 29.2848C24.2086 29.5614 24.1227 29.836 24.0301 30.1086ZM24.6339 27.9016C23.6852 27.6083 22.6996 27.2474 21.697 26.8258C22.2622 26.5283 22.8315 26.2142 23.4048 25.8834C23.9932 25.5436 24.5666 25.1953 25.125 24.8386C25.0138 25.8673 24.8499 26.8897 24.6339 27.9017V27.9016ZM25.3777 19.9972C25.3789 21.0093 25.3473 22.0207 25.2829 23.0312C24.4618 23.5869 23.5949 24.1296 22.6929 24.6503C21.7947 25.1689 20.9047 25.6455 20.0317 26.0768C19.113 25.6365 18.212 25.1621 17.3287 24.6534C16.4504 24.1479 15.5923 23.6095 14.7543 23.0384C14.6777 22.0282 14.6391 21.0161 14.6385 20.0022L14.6387 20.0026C14.638 18.9894 14.6757 17.9772 14.7519 16.9662C15.5728 16.4055 16.4334 15.8634 17.3232 15.3496C18.2171 14.8335 19.1182 14.3589 20.0144 13.9288C20.9218 14.3698 21.8128 14.8424 22.6874 15.3466C23.5651 15.851 24.4257 16.3836 25.2691 16.9444C25.3415 17.9604 25.3778 18.978 25.3778 19.9972H25.3777ZM26.9722 11.5091C30.1745 10.8862 32.5889 11.3052 33.1938 12.3528C33.8381 13.4688 32.9146 15.9336 30.604 18.5301L30.6039 18.5302C30.4763 18.6734 30.3438 18.8172 30.2066 18.9617C29.0807 17.944 27.8869 17.0041 26.6333 16.1486C26.5068 14.6635 26.2811 13.1886 25.9576 11.7337C26.3024 11.6489 26.6406 11.574 26.9722 11.5091ZM26.7558 17.9836C27.6013 18.601 28.4143 19.2618 29.1914 19.9633C28.4177 20.6765 27.6073 21.3487 26.7635 21.9772C26.7893 21.3173 26.802 20.6571 26.8016 19.9965C26.8013 19.3254 26.7861 18.6544 26.7558 17.9836ZM33.2026 27.6315C32.5968 28.6835 30.2561 29.1221 27.1156 28.5279C26.7557 28.46 26.3864 28.3791 26.0077 28.2853C26.3234 26.8117 26.5391 25.3184 26.6534 23.8157C27.9049 22.9453 29.095 21.9898 30.2152 20.9559C30.4113 21.1596 30.5977 21.3623 30.7746 21.564V21.5639C31.7764 22.6532 32.5691 23.9175 33.1131 25.2938C33.287 25.6566 33.3847 26.0513 33.4001 26.4534C33.4155 26.8555 33.3483 27.2565 33.2026 27.6315Z" fill="white"/>
</svg>
