<svg width="100" height="100" viewBox="0 0 100 100" fill="none" xmlns="http://www.w3.org/2000/svg">
<path d="M10.9375 59.375H12.5C12.5 59.7894 12.6646 60.1868 12.9576 60.4799C13.2507 60.7729 13.6481 60.9375 14.0625 60.9375H17.1875V71.875C17.1875 73.1182 17.6814 74.3105 18.5604 75.1896C19.4395 76.0686 20.6318 76.5625 21.875 76.5625C23.1182 76.5625 24.3105 76.0686 25.1896 75.1896C26.0686 74.3105 26.5625 73.1182 26.5625 71.875V60.9375H29.6875C30.0009 60.936 30.3066 60.8403 30.5649 60.6628C30.8232 60.4853 31.0222 60.2342 31.1359 59.9422L34.3219 61.0047C36.9755 61.8874 39.4686 63.1939 41.7047 64.8734L43.75 66.4062V67.1875C43.75 68.4307 44.2439 69.623 45.1229 70.5021C46.002 71.3811 47.1943 71.875 48.4375 71.875C49.6807 71.875 50.873 71.3811 51.7521 70.5021C52.6311 69.623 53.125 68.4307 53.125 67.1875V32.8125C53.125 31.5693 52.6311 30.377 51.7521 29.4979C50.873 28.6189 49.6807 28.125 48.4375 28.125C47.1943 28.125 46.002 28.6189 45.1229 29.4979C44.2439 30.377 43.75 31.5693 43.75 32.8125V33.6937C40.263 37.0311 35.9103 39.3241 31.1859 40.3125C31.1191 39.9631 30.9333 39.6476 30.6601 39.4197C30.387 39.1918 30.0433 39.0656 29.6875 39.0625H14.0625C13.6481 39.0625 13.2507 39.2271 12.9576 39.5201C12.6646 39.8132 12.5 40.2106 12.5 40.625H10.9375C8.86626 40.6275 6.88056 41.4514 5.41597 42.916C3.95138 44.3806 3.12748 46.3663 3.125 48.4375V51.5625C3.12748 53.6337 3.95138 55.6194 5.41597 57.084C6.88056 58.5486 8.86626 59.3725 10.9375 59.375ZM23.4375 71.875C23.4375 72.2894 23.2729 72.6868 22.9799 72.9799C22.6868 73.2729 22.2894 73.4375 21.875 73.4375C21.4606 73.4375 21.0632 73.2729 20.7701 72.9799C20.4771 72.6868 20.3125 72.2894 20.3125 71.875V60.9375H23.4375V71.875ZM46.875 32.8125C46.875 32.3981 47.0396 32.0007 47.3326 31.7076C47.6257 31.4146 48.0231 31.25 48.4375 31.25C48.8519 31.25 49.2493 31.4146 49.5424 31.7076C49.8354 32.0007 50 32.3981 50 32.8125V67.1875C50 67.6019 49.8354 67.9993 49.5424 68.2924C49.2493 68.5854 48.8519 68.75 48.4375 68.75C48.0231 68.75 47.6257 68.5854 47.3326 68.2924C47.0396 67.9993 46.875 67.6019 46.875 67.1875V32.8125ZM43.75 62.5L43.5812 62.3734C41.0767 60.4927 38.2844 59.0295 35.3125 58.0406L31.25 56.6859V43.4844C35.8116 42.6248 40.0992 40.6794 43.75 37.8125V62.5ZM15.625 42.1875H28.125V57.8125H15.625V42.1875ZM6.25 48.4375C6.25 47.1943 6.74386 46.002 7.62294 45.1229C8.50201 44.2439 9.6943 43.75 10.9375 43.75H12.5V56.25H10.9375C9.6943 56.25 8.50201 55.7561 7.62294 54.8771C6.74386 53.998 6.25 52.8057 6.25 51.5625V48.4375ZM84.375 3.125C81.9027 3.125 79.486 3.85811 77.4304 5.23163C75.3748 6.60515 73.7726 8.55738 72.8265 10.8415C71.8804 13.1255 71.6329 15.6389 72.1152 18.0636C72.5975 20.4884 73.788 22.7157 75.5362 24.4638C77.2843 26.212 79.5116 27.4025 81.9364 27.8848C84.3611 28.3671 86.8745 28.1196 89.1585 27.1735C91.4426 26.2274 93.3949 24.6252 94.7684 22.5696C96.1419 20.514 96.875 18.0973 96.875 15.625C96.8713 12.3109 95.5531 9.13367 93.2097 6.79028C90.8663 4.44688 87.6891 3.12872 84.375 3.125ZM84.375 25C82.5208 25 80.7082 24.4502 79.1665 23.42C77.6248 22.3899 76.4232 20.9257 75.7136 19.2127C75.0041 17.4996 74.8184 15.6146 75.1801 13.796C75.5419 11.9775 76.4348 10.307 77.7459 8.99587C79.057 7.68476 80.7275 6.79187 82.546 6.43014C84.3646 6.0684 86.2496 6.25406 87.9627 6.96363C89.6757 7.6732 91.1399 8.87482 92.17 10.4165C93.2002 11.9582 93.75 13.7708 93.75 15.625C93.7475 18.1106 92.759 20.4938 91.0014 22.2514C89.2438 24.009 86.8606 24.9975 84.375 25ZM82.8125 35.9375C80.0312 35.9375 77.3124 36.7622 74.9998 38.3075C72.6872 39.8527 70.8848 42.0489 69.8204 44.6185C68.7561 47.1881 68.4776 50.0156 69.0202 52.7435C69.5628 55.4713 70.9021 57.977 72.8688 59.9437C74.8355 61.9104 77.3412 63.2497 80.069 63.7923C82.7969 64.3349 85.6244 64.0564 88.194 62.9921C90.7636 61.9277 92.9598 60.1253 94.505 57.8127C96.0502 55.5001 96.875 52.7813 96.875 50C96.8705 46.2718 95.3874 42.6976 92.7512 40.0613C90.1149 37.4251 86.5407 35.942 82.8125 35.9375ZM82.8125 60.9375C80.6493 60.9375 78.5346 60.296 76.7359 59.0942C74.9373 57.8924 73.5354 56.1842 72.7076 54.1856C71.8797 52.187 71.6631 49.9879 72.0852 47.8662C72.5072 45.7445 73.5489 43.7957 75.0785 42.266C76.6082 40.7364 78.557 39.6947 80.6787 39.2727C82.8004 38.8506 84.9995 39.0672 86.9981 39.8951C88.9967 40.7229 90.7049 42.1248 91.9067 43.9235C93.1085 45.7221 93.75 47.8368 93.75 50C93.7467 52.8998 92.5933 55.6799 90.5428 57.7303C88.4924 59.7808 85.7123 60.9342 82.8125 60.9375Z" fill="white"/>
<path d="M86.7188 9.375C85.6827 9.375 84.6892 9.78655 83.9566 10.5191C83.224 11.2517 82.8125 12.2452 82.8125 13.2812V15.625H79.6875V18.75H82.8125V21.875H85.9375V18.75H89.0625V15.625H85.9375V13.2812C85.9375 13.074 86.0198 12.8753 86.1663 12.7288C86.3128 12.5823 86.5115 12.5 86.7188 12.5C86.926 12.5 87.1247 12.5823 87.2712 12.7288C87.4177 12.8753 87.5 13.074 87.5 13.2812V14.0625H90.625V13.2812C90.625 12.2452 90.2135 11.2517 89.4809 10.5191C88.7483 9.78655 87.7548 9.375 86.7188 9.375ZM92.1875 75H78.125C76.8818 75 75.6895 75.4939 74.8104 76.3729C73.9314 77.252 73.4375 78.4443 73.4375 79.6875V92.1875C73.4375 93.4307 73.9314 94.623 74.8104 95.5021C75.6895 96.3811 76.8818 96.875 78.125 96.875H92.1875C93.4307 96.875 94.623 96.3811 95.5021 95.5021C96.3811 94.623 96.875 93.4307 96.875 92.1875V79.6875C96.875 78.4443 96.3811 77.252 95.5021 76.3729C94.623 75.4939 93.4307 75 92.1875 75ZM92.1875 78.125C92.6019 78.125 92.9993 78.2896 93.2924 78.5826C93.5854 78.8757 93.75 79.2731 93.75 79.6875V84.375H91.1844C90.8433 83.035 90.0655 81.8469 88.9739 80.9983C87.8822 80.1497 86.5389 79.689 85.1562 79.689C83.7736 79.689 82.4303 80.1497 81.3386 80.9983C80.247 81.8469 79.4692 83.035 79.1281 84.375H76.5625V79.6875C76.5625 79.2731 76.7271 78.8757 77.0201 78.5826C77.3132 78.2896 77.7106 78.125 78.125 78.125H92.1875ZM88.2812 85.9375C88.2812 86.5556 88.098 87.1598 87.7546 87.6737C87.4112 88.1876 86.9232 88.5881 86.3521 88.8246C85.7811 89.0611 85.1528 89.123 84.5466 89.0025C83.9404 88.8819 83.3836 88.5843 82.9465 88.1472C82.5095 87.7102 82.2119 87.1534 82.0913 86.5472C81.9707 85.941 82.0326 85.3126 82.2691 84.7416C82.5056 84.1706 82.9062 83.6825 83.4201 83.3392C83.934 82.9958 84.5382 82.8125 85.1562 82.8125C85.9851 82.8125 86.7799 83.1417 87.366 83.7278C87.952 84.3138 88.2812 85.1087 88.2812 85.9375ZM92.1875 93.75H78.125C77.7106 93.75 77.3132 93.5854 77.0201 93.2924C76.7271 92.9993 76.5625 92.6019 76.5625 92.1875V87.5H79.1281C79.4692 88.84 80.247 90.0281 81.3386 90.8767C82.4303 91.7253 83.7736 92.186 85.1562 92.186C86.5389 92.186 87.8822 91.7253 88.9739 90.8767C90.0655 90.0281 90.8433 88.84 91.1844 87.5H93.75V92.1875C93.75 92.6019 93.5854 92.9993 93.2924 93.2924C92.9993 93.5854 92.6019 93.75 92.1875 93.75ZM85.1562 43.75C84.1202 43.75 83.1267 44.1615 82.3941 44.8941C81.6615 45.6267 81.25 46.6202 81.25 47.6562V49.0344L77.2609 47.0391C76.9935 46.9054 76.6934 46.8513 76.3962 46.8831C76.0989 46.9148 75.817 47.0312 75.5839 47.2184C75.3509 47.4056 75.1764 47.6557 75.0812 47.9391C74.986 48.2225 74.9741 48.5272 75.0469 48.8172L75.7609 51.6734C76.0819 52.9698 76.7262 54.1637 77.6336 55.1435C78.541 56.1234 79.682 56.8572 80.95 57.2766C82.1598 57.6776 83.4667 57.6776 84.6766 57.2766L85.0281 57.1594C86.2038 56.7693 87.2264 56.0184 87.9507 55.0136C88.675 54.0088 89.0641 52.8012 89.0625 51.5625V50H90.625V46.875H88.9828C88.8028 45.9929 88.3236 45.2002 87.6263 44.6307C86.929 44.0613 86.0565 43.7502 85.1562 43.75ZM85.9375 51.5625C85.938 52.1448 85.7549 52.7124 85.4144 53.1848C85.0739 53.6571 84.5932 54.0102 84.0406 54.1937L83.6875 54.3109C83.1192 54.4985 82.5058 54.4985 81.9375 54.3109C81.2448 54.0822 80.6136 53.698 80.0923 53.1878C79.5709 52.6776 79.1733 52.0548 78.9297 51.3672L79.8516 51.8359C80.3285 52.0746 80.8586 52.1872 81.3914 52.1631C81.9243 52.139 82.442 51.9789 82.8954 51.698C83.3489 51.4172 83.7229 51.025 83.9819 50.5587C84.2408 50.0925 84.3762 49.5677 84.375 49.0344V47.6562C84.375 47.4491 84.4573 47.2503 84.6038 47.1038C84.7503 46.9573 84.949 46.875 85.1562 46.875C85.3635 46.875 85.5622 46.9573 85.7087 47.1038C85.8552 47.2503 85.9375 47.4491 85.9375 47.6562V51.5625Z" fill="white"/>
<path d="M59.375 48.4375H56.25V51.5625H59.375V48.4375Z" fill="white"/>
<path d="M65.625 48.4375H62.5V51.5625H65.625V48.4375Z" fill="white"/>
<path d="M58.6484 35.7609C57.7219 36.1109 56.764 36.4219 55.8 36.6797L56.6094 39.6984C57.675 39.4125 58.7328 39.0734 59.7562 38.6828L58.6484 35.7609ZM75.0172 26.8063L75.1375 26.6344L72.5812 24.8438L72.4594 25.0172C71.925 25.7781 71.3515 26.5234 70.7515 27.2281L73.1312 29.2594C73.7953 28.4688 74.4297 27.6469 75.0172 26.8063ZM66.4406 31.3641L68.3687 33.8234C69.2382 33.1438 70.0726 32.4204 70.8687 31.6563L68.7031 29.4031C67.9824 30.0944 67.2273 30.7489 66.4406 31.3641ZM63.9953 33.0891C63.1516 33.6223 62.2818 34.1131 61.389 34.5594L62.7844 37.3547C63.7656 36.8656 64.7344 36.3187 65.6656 35.7312L63.9953 33.0891ZM68.7 70.5969L70.8656 68.3438C70.0694 67.5796 69.235 66.8562 68.3656 66.1766L66.4375 68.6359C67.2241 69.2511 67.9793 69.9056 68.7 70.5969ZM72.5812 75.1562L75.1375 73.3609L75.0187 73.1906C74.4297 72.3484 73.7953 71.5266 73.1312 70.7469L70.7515 72.7781C71.3515 73.4828 71.925 74.2281 72.4609 74.9906L72.5812 75.1562ZM58.6484 64.2391L59.7562 61.3172C58.7328 60.9297 57.675 60.5875 56.6094 60.3016L55.8 63.3203C56.764 63.5781 57.7219 63.8891 58.6484 64.2391ZM63.9953 66.9109L65.6656 64.2687C64.7281 63.6812 63.7656 63.1344 62.7844 62.6453L61.389 65.4406C62.2818 65.8869 63.1516 66.3777 63.9953 66.9109Z" fill="white"/>
<path d="M23.0469 45.3125H19.9219V48.4375H23.0469V45.3125Z" fill="white"/>
<path d="M23.0469 51.5625H19.9219V54.6875H23.0469V51.5625Z" fill="white"/>
</svg>
