<svg xmlns="http://www.w3.org/2000/svg" viewBox="0 0 64 64"><path d="M7 38H8a1 1 0 0 0 1 1h2v7a3 3 0 0 0 6 0V39h2a1 1 0 0 0 .927-.637l2.039.68a16.584 16.584 0 0 1 4.725 2.476L28 42.5V43a3 3 0 0 0 6 0V21a3 3 0 0 0-6 0v.564A16.523 16.523 0 0 1 19.959 25.8.985.985 0 0 0 19 25H9a1 1 0 0 0-1 1H7a5.006 5.006 0 0 0-5 5v2A5.006 5.006 0 0 0 7 38zm8 8a1 1 0 0 1-2 0V39h2zM30 21a1 1 0 0 1 2 0V43a1 1 0 0 1-2 0zM28 40l-.108-.081A18.585 18.585 0 0 0 22.6 37.146L20 36.279V27.83A18.5 18.5 0 0 0 28 24.2zM10 27h8V37H10zM4 31a3 3 0 0 1 3-3H8v8H7a3 3 0 0 1-3-3zM54 2a8 8 0 1 0 8 8A8.009 8.009 0 0 0 54 2zm0 14a6 6 0 1 1 6-6A6.006 6.006 0 0 1 54 16zM53 23a9 9 0 1 0 9 9A9.011 9.011 0 0 0 53 23zm0 16a7 7 0 1 1 7-7A7.008 7.008 0 0 1 53 39z"/><path d="M55.5 6A2.5 2.5 0 0 0 53 8.5V10H51v2h2v2h2V12h2V10H55V8.5a.5.5 0 0 1 1 0V9h2V8.5A2.5 2.5 0 0 0 55.5 6zM59 48H50a3 3 0 0 0-3 3v8a3 3 0 0 0 3 3h9a3 3 0 0 0 3-3V51A3 3 0 0 0 59 48zm0 2a1 1 0 0 1 1 1v3H58.358a3.981 3.981 0 0 0-7.716 0H49V51a1 1 0 0 1 1-1zm-2.5 5a2 2 0 1 1-2-2A2 2 0 0 1 56.5 55zM59 60H50a1 1 0 0 1-1-1V56h1.642a3.981 3.981 0 0 0 7.716 0H60v3A1 1 0 0 1 59 60zM54.5 28A2.5 2.5 0 0 0 52 30.5v.882l-2.553-1.277a1 1 0 0 0-1.417 1.138l.457 1.828a5.057 5.057 0 0 0 3.321 3.586 3.79 3.79 0 0 0 2.385 0l.225-.075A3.769 3.769 0 0 0 57 33V32h1V30H56.949A2.5 2.5 0 0 0 54.5 28zm.5 5a1.773 1.773 0 0 1-1.214 1.684l-.226.075a1.787 1.787 0 0 1-1.12 0 3.06 3.06 0 0 1-1.925-1.884l.59.3A2 2 0 0 0 54 31.382V30.5a.5.5 0 0 1 1 0z"/><rect width="2" height="2" x="36" y="31"/><rect width="2" height="2" x="40" y="31"/><path d="M37.535 22.887c-.593.224-1.206.423-1.823.588l.518 1.932c.682-.183 1.359-.4 2.014-.65zM48.011 17.156l.077-.11L46.452 15.9l-.078.111c-.342.487-.709.964-1.093 1.415l1.523 1.3C47.229 18.22 47.635 17.694 48.011 17.156zM42.522 20.073l1.234 1.574a20.89 20.89 0 0 0 1.6-1.387l-1.386-1.442A19.006 19.006 0 0 1 42.522 20.073zM40.957 21.177a19.146 19.146 0 0 1-1.668.941l.893 1.789c.628-.313 1.248-.663 1.844-1.039zM43.968 45.182l1.386-1.442a20.89 20.89 0 0 0-1.6-1.387l-1.234 1.574A19.006 19.006 0 0 1 43.968 45.182zM46.452 48.1l1.636-1.149-.076-.109c-.377-.539-.783-1.065-1.208-1.564l-1.523 1.3c.384.451.751.928 1.094 1.416zM37.535 41.113l.709-1.87c-.655-.248-1.332-.467-2.014-.65l-.518 1.932C36.329 40.69 36.942 40.889 37.535 41.113zM40.957 42.823l1.069-1.691c-.6-.376-1.216-.726-1.844-1.039l-.893 1.789A19.146 19.146 0 0 1 40.957 42.823z"/><rect width="2" height="2" x="12.75" y="29"/><rect width="2" height="2" x="12.75" y="33"/></svg>